<svg width="18" height="18" viewBox="0 0 18 18" fill="none" xmlns="http://www.w3.org/2000/svg">
<path d="M7.57342 1.89057C8.02244 0.508608 9.97756 0.50861 10.4266 1.89058L11.4697 5.10081C11.6705 5.71885 12.2464 6.13729 12.8962 6.13729H16.2717C17.7248 6.13729 18.3289 7.99671 17.1534 8.85081L14.4226 10.8348C13.8968 11.2168 13.6769 11.8939 13.8777 12.5119L14.9207 15.7221C15.3698 17.1041 13.788 18.2533 12.6125 17.3992L9.88168 15.4152C9.35595 15.0332 8.64405 15.0332 8.11832 15.4152L5.38753 17.3992C4.21196 18.2533 2.63024 17.1041 3.07927 15.7221L4.12234 12.5119C4.32315 11.8939 4.10316 11.2168 3.57743 10.8348L0.846638 8.85081C-0.328932 7.99671 0.275234 6.13729 1.72832 6.13729H5.10376C5.7536 6.13729 6.32953 5.71885 6.53035 5.10081L7.57342 1.89057Z" fill="#D0D4E7"/>
</svg>
